<svg id="Layer_1" data-name="Layer 1" xmlns="http://www.w3.org/2000/svg" viewBox="0 0 91.64 109.26"><defs><style>.cls-1{fill:#fff;}</style></defs><title>bucket_svg_iconos2</title><path class="cls-1" d="M61.54,79.67H3.46L15.63,0H69.06c1.08,0,10,0,16.24,6.09,3.94,3.81,5.93,9,5.93,15.49s-2,11.67-5.93,15.49a18.43,18.43,0,0,1-1.74,1.48,18.33,18.33,0,0,1,4.66,4.17c2.19,2.78,4.46,7.65,2.92,15-3.68,17.45-20.56,22-29.6,22M13.77,70.81h47.3c.73,0,18.22.2,21.4-14.93.69-3.27.29-5.79-1.22-7.72-3-3.85-10.07-4.94-12.3-5l.29-8.85c.05,0,6.15.09,9.94-3.63,2.15-2.11,3.2-5.08,3.2-9.09s-1.06-7-3.24-9.14c-3.8-3.67-9.85-3.58-9.9-3.59h-46Z"/><path class="cls-1" d="M49.43,61.47A22.13,22.13,0,1,1,71.56,39.34,22.16,22.16,0,0,1,49.43,61.47m0-35.4A13.28,13.28,0,1,0,62.71,39.34,13.28,13.28,0,0,0,49.43,26.07"/><path class="cls-1" d="M21.33,105.64a1.39,1.39,0,0,1-.32,1,1.23,1.23,0,0,1-.86.26,1.25,1.25,0,0,1-.88-.26,1.4,1.4,0,0,1-.3-1V94.38H16.66v11.26a3.65,3.65,0,0,0,1.05,2.76,3.46,3.46,0,0,0,2.44.86,3.56,3.56,0,0,0,2.44-.86,3.75,3.75,0,0,0,1.05-2.76V94.38H21.33Z"/><path class="cls-1" d="M36.92,94.21a3.55,3.55,0,0,0-2.44.86,3.73,3.73,0,0,0-1,2.76v7.81a3.73,3.73,0,0,0,1,2.76,3.55,3.55,0,0,0,2.44.86,3.46,3.46,0,0,0,2.44-.86,3.65,3.65,0,0,0,1-2.76v-1.89H38.09v1.89a1.4,1.4,0,0,1-.29,1,1.27,1.27,0,0,1-.88.26,1.23,1.23,0,0,1-.86-.26,1.39,1.39,0,0,1-.32-1V97.83a1.39,1.39,0,0,1,.32-1,1.23,1.23,0,0,1,.86-.26,1.27,1.27,0,0,1,.88.26,1.4,1.4,0,0,1,.29,1v1.3h2.32v-1.3a3.65,3.65,0,0,0-1-2.76,3.46,3.46,0,0,0-2.44-.86"/><polygon class="cls-1" points="55.09 94.38 52.53 100.35 52.53 94.38 50.22 94.38 50.22 109.09 52.53 109.09 52.53 106.21 53.33 104.38 55.12 109.09 57.59 109.09 54.63 101.36 57.59 94.38 55.09 94.38"/><polygon class="cls-1" points="67.11 109.09 73.21 109.09 73.21 106.78 69.42 106.78 69.42 102.7 72.03 102.7 72.03 100.39 69.42 100.39 69.42 96.69 73.21 96.69 73.21 94.38 67.11 94.38 67.11 109.09"/><polygon class="cls-1" points="82.41 94.38 82.41 96.69 84.76 96.69 84.76 109.09 87.07 109.09 87.07 96.69 89.43 96.69 89.43 94.38 82.41 94.38"/><path class="cls-1" d="M5.82,101.57a3,3,0,0,0,.84-2.27V97.93a4.09,4.09,0,0,0-.27-1.55,2.85,2.85,0,0,0-.8-1.18,3.5,3.5,0,0,0-2.42-.82H0v14.71H3.49a3.42,3.42,0,0,0,2.41-.82,2.73,2.73,0,0,0,.8-1.18A3.87,3.87,0,0,0,7,105.56v-1.35a3,3,0,0,0-1.16-2.64M2.31,96.69h.86a1.36,1.36,0,0,1,.89.23,1.43,1.43,0,0,1,.29,1V99.3a1.45,1.45,0,0,1-.32,1,1.21,1.21,0,0,1-.86.25H2.31Zm2.36,8.87a1.32,1.32,0,0,1-.3,1,1.33,1.33,0,0,1-.88.23H2.31v-3.87H3.49a1.28,1.28,0,0,1,.86.25,1.42,1.42,0,0,1,.32,1Z"/><path class="cls-1" d="M88.22,42.72a18.33,18.33,0,0,0-4.66-4.17,18.43,18.43,0,0,0,1.74-1.48c3.93-3.82,5.93-9,5.93-15.49S89.23,9.9,85.3,6.09C79.05,0,70.14,0,69.06,0H15.64L3.46,79.67H61.54c9,0,25.92-4.51,29.6-22,1.54-7.34-.73-12.21-2.92-15M82.47,55.89C79.29,71,61.8,70.81,61.07,70.82H13.77l9.47-62h46c.05,0,6.1-.08,9.9,3.59,2.18,2.12,3.24,5.11,3.24,9.14s-1,7-3.2,9.09A14.27,14.27,0,0,1,71,34.19a22.14,22.14,0,1,0,.23,9.2c3.07.5,7.76,1.83,10.07,4.78,1.51,1.93,1.91,4.45,1.22,7.72M62.71,39.34A13.28,13.28,0,1,1,49.43,26.07,13.3,13.3,0,0,1,62.71,39.34"/></svg>